<?xml version="1.0" standalone="no"?>
<!DOCTYPE svg PUBLIC "-//W3C//DTD SVG 20010904//EN"
 "http://www.w3.org/TR/2001/REC-SVG-20010904/DTD/svg10.dtd">
<svg version="1.0" xmlns="http://www.w3.org/2000/svg"
 width="178.000000pt" height="197.000000pt" viewBox="0 0 178.000000 197.000000"
 preserveAspectRatio="xMidYMid meet">

<g transform="translate(0.000000,197.000000) scale(0.100000,-0.100000)"
fill="#000000" stroke="none">
<path d="M882 1673 c-10 -16 -56 -90 -102 -167 -75 -124 -85 -136 -97 -120 -7
9 -15 15 -17 13 -3 -3 -37 -72 -76 -154 -39 -82 -73 -151 -75 -154 -3 -2 -11
2 -20 9 -9 7 -17 11 -19 9 -3 -2 -36 -70 -74 -151 l-71 -148 281 -247 c154
-137 284 -249 289 -251 4 -2 70 50 146 115 76 65 211 178 301 251 l163 133
-29 52 c-16 29 -71 130 -122 225 -53 99 -97 171 -104 169 -6 -3 -18 -8 -26
-11 -12 -5 -25 19 -59 111 -51 135 -57 145 -75 121 -7 -10 -16 -18 -19 -18 -2
0 -40 54 -83 120 -43 66 -82 120 -86 120 -3 0 -15 -12 -26 -27z m18 -390 c0
-221 -4 -363 -9 -357 -5 5 -50 100 -99 211 l-90 202 95 155 c52 86 97 156 99
156 2 0 4 -165 4 -367z m160 150 c0 -5 -32 -55 -70 -113 l-70 -105 0 220 0
220 70 -107 c39 -59 70 -111 70 -115z m99 -102 c23 -62 40 -115 39 -116 -2 -2
-64 -53 -138 -115 l-135 -113 -3 96 -3 96 93 140 c51 77 96 137 99 133 3 -4
25 -58 48 -121z m-371 -233 c92 -209 112 -261 112 -301 0 -27 -4 -47 -9 -45
-5 2 -82 68 -172 148 -89 80 -169 150 -177 156 -12 8 -3 34 54 152 37 78 70
142 73 142 4 0 57 -114 119 -252z m584 -74 c59 -109 108 -202 108 -206 0 -3
-73 -66 -162 -139 -90 -73 -208 -171 -263 -218 -55 -47 -108 -92 -118 -100
-16 -13 -17 3 -17 291 l0 305 163 136 c89 75 166 135 172 133 5 -1 58 -92 117
-202z m-717 -94 c77 -68 164 -146 193 -174 l52 -50 0 -178 c0 -98 -4 -178 -9
-178 -7 0 -154 128 -465 404 l-68 61 47 100 c26 55 54 115 62 134 13 30 16 32
31 19 9 -8 80 -70 157 -138z"/>
</g>
</svg>
